<svg xmlns="http://www.w3.org/2000/svg" viewBox="0 0 1024 1024" role="img" aria-label="リアルなボルドー封蝋シール">
  <defs>
    <filter id="waxNoise" x="-20%" y="-20%" width="140%" height="140%">
      <feTurbulence type="fractalNoise" baseFrequency="0.028" numOctaves="5" seed="21" result="noise"/>
      <feDisplacementMap in="SourceGraphic" in2="noise" scale="18" xChannelSelector="R" yChannelSelector="G"/>
    </filter>
    <filter id="surface" x="-20%" y="-20%" width="140%" height="140%">
      <feTurbulence type="fractalNoise" baseFrequency="0.85" numOctaves="3" seed="8" result="grain"/>
      <feColorMatrix in="grain" type="matrix" values="0 0 0 0 0.55 0 0 0 0 0.05 0 0 0 0 0.05 0 0 0 .16 0" result="grainColor"/>
      <feBlend in="SourceGraphic" in2="grainColor" mode="overlay"/>
    </filter>
    <filter id="shadow" x="-30%" y="-30%" width="160%" height="160%">
      <feDropShadow dx="0" dy="30" stdDeviation="28" flood-color="#120101" flood-opacity="0.62"/>
      <feDropShadow dx="0" dy="8" stdDeviation="8" flood-color="#000" flood-opacity="0.50"/>
    </filter>
    <radialGradient id="waxGrad" cx="38%" cy="32%" r="68%">
      <stop offset="0" stop-color="#f06b55"/>
      <stop offset="0.13" stop-color="#c4312d"/>
      <stop offset="0.42" stop-color="#881313"/>
      <stop offset="0.73" stop-color="#4f0709"/>
      <stop offset="1" stop-color="#2b0304"/>
    </radialGradient>
    <radialGradient id="dentGrad" cx="50%" cy="48%" r="48%">
      <stop offset="0" stop-color="#8f1916"/>
      <stop offset="0.60" stop-color="#6b0c0d"/>
      <stop offset="0.73" stop-color="#2f0203"/>
      <stop offset="0.84" stop-color="#b02a21"/>
      <stop offset="1" stop-color="#540709"/>
    </radialGradient>
    <linearGradient id="goldGrad" x1="20%" y1="0" x2="80%" y2="100%">
      <stop offset="0" stop-color="#fff1a8"/>
      <stop offset="0.22" stop-color="#d0a236"/>
      <stop offset="0.52" stop-color="#7c4b0e"/>
      <stop offset="0.76" stop-color="#f5d573"/>
      <stop offset="1" stop-color="#8a5a15"/>
    </linearGradient>
    <path id="leafLeft" d="M356 702C266 624 249 451 331 323M359 650c-52-29-64-85-35-129M376 575c-48-24-55-72-29-112M400 505c-39-15-46-58-21-88"/>
    <path id="leafRight" d="M668 702c90-78 107-251 25-379M665 650c52-29 64-85 35-129M648 575c48-24 55-72 29-112M624 505c39-15 46-58 21-88"/>
  </defs>

  <rect width="1024" height="1024" fill="none"/>

  <g filter="url(#shadow)">
    <path filter="url(#waxNoise)" fill="url(#waxGrad)" d="M512 55c58 28 94 9 135 28 40 18 51 62 100 70 57 10 75 43 75 94 0 44 56 58 83 94 31 41-16 81 11 125 31 51 4 86-42 113-42 25-12 92-58 121-39 25-91 3-120 51-28 47-68 43-113 18-42-23-75 49-124 35-45-13-56-68-108-62-55 7-78-23-87-75-8-49-78-41-107-86-26-40 6-84-32-121-37-36-30-79 9-116 38-36 0-86 36-126 30-34 81-27 99-75 17-45 55-58 101-46 50 13 85-69 142-42z"/>
    <path fill="url(#dentGrad)" opacity="0.93" d="M512 196c184 0 333 139 333 310S696 816 512 816 179 677 179 506s149-310 333-310z" filter="url(#surface)"/>
    <path fill="none" stroke="#2a0202" stroke-width="18" opacity=".48" d="M512 226c165 0 299 125 299 280S677 786 512 786 213 661 213 506s134-280 299-280z"/>
    <path fill="none" stroke="#e1604b" stroke-width="8" opacity=".32" d="M512 248c151 0 274 115 274 257S663 762 512 762 238 647 238 505s123-257 274-257z"/>

    <ellipse cx="385" cy="296" rx="135" ry="72" fill="#ffd2c6" opacity=".18" transform="rotate(-22 385 296)"/>
    <ellipse cx="344" cy="253" rx="76" ry="32" fill="#fff2e7" opacity=".23" transform="rotate(-20 344 253)"/>
    <path d="M661 722c78-28 133-83 158-160" fill="none" stroke="#130101" stroke-width="22" stroke-linecap="round" opacity=".24"/>
  </g>

  <g opacity=".95" filter="url(#surface)">
    <circle cx="512" cy="506" r="222" fill="none" stroke="url(#goldGrad)" stroke-width="12" opacity=".88"/>
    <circle cx="512" cy="506" r="189" fill="none" stroke="url(#goldGrad)" stroke-width="6" opacity=".80" stroke-dasharray="10 22" stroke-linecap="round"/>
    <use href="#leafLeft" fill="none" stroke="url(#goldGrad)" stroke-width="16" stroke-linecap="round" stroke-linejoin="round"/>
    <use href="#leafRight" fill="none" stroke="url(#goldGrad)" stroke-width="16" stroke-linecap="round" stroke-linejoin="round"/>
    <text x="512" y="594" text-anchor="middle" font-family="Georgia, 'Times New Roman', serif" font-size="265" font-weight="700" fill="url(#goldGrad)" stroke="#4b2305" stroke-width="5" paint-order="stroke">G</text>
    <path d="M512 250l18 39 42 5-31 29 8 42-37-21-37 21 8-42-31-29 42-5z" fill="url(#goldGrad)" opacity=".9"/>
  </g>
</svg>
